<svg xmlns="http://www.w3.org/2000/svg" viewBox="0 0 269 311" width="269" height="311">
  <circle cx="149.38" cy="26.74" r="5.0" fill="#e8ecf4"/>
  <circle cx="162.21" cy="26.71" r="5.0" fill="#e8ecf4"/>
  <circle cx="149.38" cy="39.74" r="5.0" fill="#e8ecf4"/>
  <circle cx="162.13" cy="39.62" r="5.0" fill="#e8ecf4"/>
  <circle cx="136.54" cy="52.79" r="5.0" fill="#e8ecf4"/>
  <circle cx="149.35" cy="52.65" r="5.0" fill="#e8ecf4"/>
  <circle cx="136.50" cy="65.61" r="5.0" fill="#e8ecf4"/>
  <circle cx="149.32" cy="65.60" r="5.0" fill="#e8ecf4"/>
  <circle cx="162.12" cy="65.50" r="5.0" fill="#e8ecf4"/>
  <circle cx="123.68" cy="78.60" r="5.0" fill="#e8ecf4"/>
  <circle cx="149.32" cy="78.60" r="5.0" fill="#e8ecf4"/>
  <circle cx="162.12" cy="78.50" r="5.0" fill="#e8ecf4"/>
  <circle cx="174.85" cy="78.56" r="5.0" fill="#e8ecf4"/>
  <circle cx="123.76" cy="91.50" r="5.0" fill="#e8ecf4"/>
  <circle cx="149.24" cy="91.50" r="5.0" fill="#e8ecf4"/>
  <circle cx="162.12" cy="91.50" r="5.0" fill="#e8ecf4"/>
  <circle cx="174.88" cy="91.50" r="5.0" fill="#e8ecf4"/>
  <circle cx="149.32" cy="104.40" r="5.0" fill="#e8ecf4"/>
  <circle cx="162.12" cy="104.50" r="5.0" fill="#e8ecf4"/>
  <circle cx="174.85" cy="104.44" r="5.0" fill="#e8ecf4"/>
  <circle cx="187.60" cy="104.32" r="5.0" fill="#e8ecf4"/>
  <circle cx="110.87" cy="117.38" r="5.0" fill="#e8ecf4"/>
  <circle cx="149.37" cy="117.37" r="5.0" fill="#e8ecf4"/>
  <circle cx="162.13" cy="117.38" r="5.0" fill="#e8ecf4"/>
  <circle cx="174.74" cy="117.38" r="5.0" fill="#e8ecf4"/>
  <circle cx="187.56" cy="117.27" r="5.0" fill="#e8ecf4"/>
  <circle cx="110.87" cy="130.38" r="5.0" fill="#e8ecf4"/>
  <circle cx="149.32" cy="130.24" r="5.0" fill="#e8ecf4"/>
  <circle cx="162.06" cy="130.38" r="5.0" fill="#e8ecf4"/>
  <circle cx="174.73" cy="130.27" r="5.0" fill="#e8ecf4"/>
  <circle cx="187.56" cy="130.27" r="5.0" fill="#e8ecf4"/>
  <circle cx="200.38" cy="130.26" r="5.0" fill="#e8ecf4"/>
  <circle cx="98.32" cy="143.17" r="5.0" fill="#e8ecf4"/>
  <circle cx="162.06" cy="143.31" r="5.0" fill="#e8ecf4"/>
  <circle cx="149.32" cy="143.24" r="5.0" fill="#e8ecf4"/>
  <circle cx="174.63" cy="143.19" r="5.0" fill="#e8ecf4"/>
  <circle cx="187.56" cy="143.15" r="5.0" fill="#e8ecf4"/>
  <circle cx="200.37" cy="143.19" r="5.0" fill="#e8ecf4"/>
  <circle cx="98.21" cy="155.91" r="5.0" fill="#e8ecf4"/>
  <circle cx="149.39" cy="156.00" r="5.0" fill="#e8ecf4"/>
  <circle cx="162.06" cy="156.12" r="5.0" fill="#e8ecf4"/>
  <circle cx="187.50" cy="156.00" r="5.0" fill="#e8ecf4"/>
  <circle cx="200.39" cy="156.00" r="5.0" fill="#e8ecf4"/>
  <circle cx="213.15" cy="156.06" r="5.0" fill="#e8ecf4"/>
  <circle cx="174.68" cy="156.14" r="5.0" fill="#e8ecf4"/>
  <circle cx="85.24" cy="168.97" r="5.0" fill="#e8ecf4"/>
  <circle cx="149.37" cy="168.81" r="5.0" fill="#e8ecf4"/>
  <circle cx="162.17" cy="168.77" r="5.0" fill="#e8ecf4"/>
  <circle cx="174.63" cy="168.81" r="5.0" fill="#e8ecf4"/>
  <circle cx="187.50" cy="168.88" r="5.0" fill="#e8ecf4"/>
  <circle cx="200.38" cy="168.87" r="5.0" fill="#e8ecf4"/>
  <circle cx="213.11" cy="168.78" r="5.0" fill="#e8ecf4"/>
  <circle cx="85.44" cy="181.73" r="5.0" fill="#e8ecf4"/>
  <circle cx="149.32" cy="181.76" r="5.0" fill="#e8ecf4"/>
  <circle cx="162.13" cy="181.62" r="5.0" fill="#e8ecf4"/>
  <circle cx="174.68" cy="181.76" r="5.0" fill="#e8ecf4"/>
  <circle cx="187.56" cy="181.73" r="5.0" fill="#e8ecf4"/>
  <circle cx="200.37" cy="181.81" r="5.0" fill="#e8ecf4"/>
  <circle cx="213.13" cy="181.62" r="5.0" fill="#e8ecf4"/>
  <circle cx="225.63" cy="181.81" r="5.0" fill="#e8ecf4"/>
  <circle cx="149.40" cy="194.68" r="5.0" fill="#e8ecf4"/>
  <circle cx="162.13" cy="194.62" r="5.0" fill="#e8ecf4"/>
  <circle cx="174.71" cy="194.67" r="5.0" fill="#e8ecf4"/>
  <circle cx="187.56" cy="194.73" r="5.0" fill="#e8ecf4"/>
  <circle cx="200.40" cy="194.68" r="5.0" fill="#e8ecf4"/>
  <circle cx="213.13" cy="194.62" r="5.0" fill="#e8ecf4"/>
  <circle cx="225.69" cy="194.65" r="5.0" fill="#e8ecf4"/>
  <circle cx="72.63" cy="207.63" r="5.0" fill="#e8ecf4"/>
  <circle cx="149.32" cy="207.60" r="5.0" fill="#e8ecf4"/>
  <circle cx="162.12" cy="207.50" r="5.0" fill="#e8ecf4"/>
  <circle cx="174.74" cy="207.62" r="5.0" fill="#e8ecf4"/>
  <circle cx="187.56" cy="207.73" r="5.0" fill="#e8ecf4"/>
  <circle cx="200.37" cy="207.63" r="5.0" fill="#e8ecf4"/>
  <circle cx="213.15" cy="207.56" r="5.0" fill="#e8ecf4"/>
  <circle cx="225.79" cy="207.57" r="5.0" fill="#e8ecf4"/>
  <circle cx="72.63" cy="220.63" r="5.0" fill="#e8ecf4"/>
  <circle cx="149.29" cy="220.54" r="5.0" fill="#e8ecf4"/>
  <circle cx="162.12" cy="220.50" r="5.0" fill="#e8ecf4"/>
  <circle cx="174.81" cy="220.52" r="5.0" fill="#e8ecf4"/>
  <circle cx="187.60" cy="220.57" r="5.0" fill="#e8ecf4"/>
  <circle cx="200.37" cy="220.63" r="5.0" fill="#e8ecf4"/>
  <circle cx="213.12" cy="220.50" r="5.0" fill="#e8ecf4"/>
  <circle cx="225.79" cy="220.57" r="5.0" fill="#e8ecf4"/>
  <circle cx="238.54" cy="220.54" r="5.0" fill="#e8ecf4"/>
  <circle cx="59.88" cy="233.50" r="5.0" fill="#e8ecf4"/>
  <circle cx="72.59" cy="233.59" r="5.0" fill="#e8ecf4"/>
  <circle cx="85.32" cy="233.40" r="5.0" fill="#e8ecf4"/>
  <circle cx="149.24" cy="233.50" r="5.0" fill="#e8ecf4"/>
  <circle cx="162.12" cy="233.50" r="5.0" fill="#e8ecf4"/>
  <circle cx="174.88" cy="233.50" r="5.0" fill="#e8ecf4"/>
  <circle cx="187.59" cy="233.59" r="5.0" fill="#e8ecf4"/>
  <circle cx="200.24" cy="233.50" r="5.0" fill="#e8ecf4"/>
  <circle cx="213.12" cy="233.50" r="5.0" fill="#e8ecf4"/>
  <circle cx="225.85" cy="233.44" r="5.0" fill="#e8ecf4"/>
  <circle cx="238.50" cy="233.50" r="5.0" fill="#e8ecf4"/>
  <circle cx="149.32" cy="246.41" r="5.0" fill="#e8ecf4"/>
  <circle cx="213.10" cy="246.44" r="5.0" fill="#e8ecf4"/>
  <circle cx="225.88" cy="246.50" r="5.0" fill="#e8ecf4"/>
  <circle cx="238.50" cy="246.50" r="5.0" fill="#e8ecf4"/>
  <circle cx="85.35" cy="259.35" r="5.0" fill="#e8ecf4"/>
  <circle cx="98.12" cy="259.50" r="5.0" fill="#e8ecf4"/>
  <circle cx="110.88" cy="259.50" r="5.0" fill="#e8ecf4"/>
  <circle cx="123.68" cy="259.40" r="5.0" fill="#e8ecf4"/>
  <circle cx="136.50" cy="259.39" r="5.0" fill="#e8ecf4"/>
  <circle cx="149.27" cy="259.44" r="5.0" fill="#e8ecf4"/>
  <circle cx="187.55" cy="259.36" r="5.0" fill="#e8ecf4"/>
  <circle cx="200.26" cy="259.38" r="5.0" fill="#e8ecf4"/>
  <circle cx="213.12" cy="259.50" r="5.0" fill="#e8ecf4"/>
  <circle cx="225.79" cy="259.43" r="5.0" fill="#e8ecf4"/>
  <circle cx="238.50" cy="259.39" r="5.0" fill="#e8ecf4"/>
  <circle cx="251.21" cy="259.43" r="5.0" fill="#e8ecf4"/>
  <circle cx="21.60" cy="272.32" r="5.0" fill="#e8ecf4"/>
  <circle cx="34.40" cy="272.32" r="5.0" fill="#e8ecf4"/>
  <circle cx="47.15" cy="272.44" r="5.0" fill="#e8ecf4"/>
  <circle cx="59.85" cy="272.44" r="5.0" fill="#e8ecf4"/>
  <circle cx="72.60" cy="272.32" r="5.0" fill="#e8ecf4"/>
  <circle cx="85.40" cy="272.32" r="5.0" fill="#e8ecf4"/>
  <circle cx="97.66" cy="271.78" r="5.0" fill="#e8ecf4"/>
  <circle cx="111.00" cy="272.39" r="5.0" fill="#e8ecf4"/>
  <circle cx="124.01" cy="272.11" r="5.0" fill="#e8ecf4"/>
  <circle cx="136.50" cy="272.39" r="5.0" fill="#e8ecf4"/>
  <circle cx="149.32" cy="272.40" r="5.0" fill="#e8ecf4"/>
  <circle cx="162.12" cy="272.50" r="5.0" fill="#e8ecf4"/>
  <circle cx="174.85" cy="272.44" r="5.0" fill="#e8ecf4"/>
  <circle cx="187.60" cy="272.32" r="5.0" fill="#e8ecf4"/>
  <circle cx="200.43" cy="272.40" r="5.0" fill="#e8ecf4"/>
  <circle cx="213.10" cy="272.44" r="5.0" fill="#e8ecf4"/>
  <circle cx="225.74" cy="272.38" r="5.0" fill="#e8ecf4"/>
  <circle cx="238.50" cy="272.39" r="5.0" fill="#e8ecf4"/>
  <circle cx="251.21" cy="272.35" r="5.0" fill="#e8ecf4"/>
  <circle cx="34.40" cy="285.32" r="5.0" fill="#e8ecf4"/>
  <circle cx="47.15" cy="285.44" r="5.0" fill="#e8ecf4"/>
  <circle cx="59.74" cy="285.38" r="5.0" fill="#e8ecf4"/>
  <circle cx="72.60" cy="285.32" r="5.0" fill="#e8ecf4"/>
  <circle cx="85.40" cy="285.32" r="5.0" fill="#e8ecf4"/>
  <circle cx="98.93" cy="285.25" r="5.0" fill="#e8ecf4"/>
  <circle cx="123.83" cy="285.36" r="5.0" fill="#e8ecf4"/>
  <circle cx="136.56" cy="285.27" r="5.0" fill="#e8ecf4"/>
  <circle cx="149.40" cy="285.32" r="5.0" fill="#e8ecf4"/>
  <circle cx="162.15" cy="285.44" r="5.0" fill="#e8ecf4"/>
  <circle cx="174.74" cy="285.38" r="5.0" fill="#e8ecf4"/>
  <circle cx="187.63" cy="285.37" r="5.0" fill="#e8ecf4"/>
  <circle cx="200.40" cy="285.32" r="5.0" fill="#e8ecf4"/>
  <circle cx="213.15" cy="285.44" r="5.0" fill="#e8ecf4"/>
  <circle cx="225.74" cy="285.38" r="5.0" fill="#e8ecf4"/>
  <circle cx="238.50" cy="285.30" r="5.0" fill="#e8ecf4"/>
  <circle cx="110.88" cy="285.79" r="5.0" fill="#e8ecf4"/>
  <circle cx="21.54" cy="298.21" r="5.0" fill="#e8ecf4"/>
  <circle cx="34.40" cy="298.32" r="5.0" fill="#e8ecf4"/>
  <circle cx="47.18" cy="298.34" r="5.0" fill="#e8ecf4"/>
  <circle cx="59.76" cy="298.32" r="5.0" fill="#e8ecf4"/>
  <circle cx="72.56" cy="298.27" r="5.0" fill="#e8ecf4"/>
  <circle cx="85.40" cy="298.32" r="5.0" fill="#e8ecf4"/>
  <circle cx="111.00" cy="298.32" r="5.0" fill="#e8ecf4"/>
  <circle cx="123.59" cy="298.37" r="5.0" fill="#e8ecf4"/>
  <circle cx="136.50" cy="298.24" r="5.0" fill="#e8ecf4"/>
  <circle cx="149.40" cy="298.32" r="5.0" fill="#e8ecf4"/>
  <circle cx="162.06" cy="298.38" r="5.0" fill="#e8ecf4"/>
  <circle cx="174.79" cy="298.43" r="5.0" fill="#e8ecf4"/>
  <circle cx="187.56" cy="298.27" r="5.0" fill="#e8ecf4"/>
  <circle cx="200.40" cy="298.32" r="5.0" fill="#e8ecf4"/>
  <circle cx="213.13" cy="298.38" r="5.0" fill="#e8ecf4"/>
  <circle cx="225.65" cy="298.30" r="5.0" fill="#e8ecf4"/>
  <circle cx="238.58" cy="298.10" r="5.0" fill="#e8ecf4"/>
  <circle cx="251.35" cy="298.30" r="5.0" fill="#e8ecf4"/>
  <circle cx="97.91" cy="298.76" r="5.0" fill="#e8ecf4"/>
</svg>
